<?xml version="1.0" encoding="UTF-8"?><svg id="a" xmlns="http://www.w3.org/2000/svg" viewBox="0 0 128 128"><defs><style>.b{fill:#1c936b;}</style></defs><path class="b" d="M5.46,100.12c-.89-.86-1.36-2.47-1.46-3.69V31.4c.31-2.09.99-3.7,3.05-4.51,2.96-1.17,4.35.19,6.55,1.79,13.04,9.45,25.14,21.15,38.14,30.78,2.69,2.55,3.36,5.27.58,8.13L12.69,100.29c-2.13,1.66-5.23,1.74-7.23-.17Z"/><path class="b" d="M94.13,66.92l-31.76,29.48c-4.37,2.69-10.12-1.03-9.32-6.11.45-2.85,5.8-6.71,7.96-8.75,4.44-4.18,8.83-8.43,13.27-12.6.7-.65,5.34-4.53,5.25-5-6.27-6.03-12.88-11.7-19.22-17.66-1.85-1.74-6.63-5.71-7.17-7.94-1.3-5.35,5.23-9.77,9.57-6.13l31.6,29.07c1.52,1.68,1.41,4.08-.2,5.65Z"/><path class="b" d="M106.26,82.48c-4.5,4.16-9.67,9.52-14.33,13.25-5.88,4.7-13.18-2.52-8.59-8.13,8.18-7.77,16.59-15.32,24.73-23.13.14-.14.37-.2.57-.23l-.14-.47-25.23-23.26c-4.3-5.77,2.73-12.62,8.54-8.08,5,3.91,10.21,9.49,15,13.85,4.3,3.92,8.85,7.65,13.06,11.67,2.51,2.4,5.79,4.93,3.2,8.7-5.62,5.25-11.15,10.61-16.8,15.82Z"/></svg>